<?xml version="1.0" standalone="no"?>
<!DOCTYPE svg PUBLIC "-//W3C//DTD SVG 20010904//EN"
 "http://www.w3.org/TR/2001/REC-SVG-20010904/DTD/svg10.dtd">
<svg version="1.0" xmlns="http://www.w3.org/2000/svg"
 width="450.000000pt" height="450.000000pt" viewBox="0 0 450.000000 450.000000"
 preserveAspectRatio="xMidYMid meet">
<metadata>
Created by potrace 1.11, written by Peter Selinger 2001-2013
</metadata>
<g transform="translate(0.000000,450.000000) scale(0.100000,-0.100000)"
fill="#000000" stroke="none">
<path d="M3310 3661 c0 -6 4 -13 10 -16 6 -3 7 1 4 9 -7 18 -14 21 -14 7z"/>
<path d="M3357 3636 c-4 -10 -13 -13 -24 -9 -20 7 -18 5 12 -17 11 -8 17 -10
13 -6 -4 5 -3 15 4 23 6 7 9 16 6 19 -3 3 -8 -2 -11 -10z"/>
<path d="M3268 3624 c6 -11 7 -26 3 -33 -5 -7 -6 -23 -4 -35 4 -17 3 -18 -6
-6 -7 10 -11 11 -11 3 0 -10 -216 -13 -1047 -13 l-1046 0 -69 -50 c-38 -27
-73 -50 -78 -50 -6 0 -10 -4 -10 -8 0 -4 -34 -32 -76 -62 -90 -65 -96 -68
-256 -184 -68 -49 -128 -95 -134 -103 -6 -7 -14 -13 -18 -13 -3 0 -52 -34
-109 -75 -56 -42 -138 -101 -182 -132 -44 -31 -82 -60 -85 -64 -3 -3 -16 -12
-29 -19 l-24 -12 60 -57 c33 -31 93 -85 133 -121 40 -36 96 -87 124 -113 28
-27 75 -69 104 -95 30 -26 75 -67 102 -92 47 -45 194 -178 234 -213 11 -10 65
-60 120 -110 55 -51 104 -96 110 -102 6 -5 58 -53 116 -105 122 -111 102 -93
220 -200 51 -47 101 -92 110 -100 26 -23 195 -177 267 -244 35 -32 72 -66 82
-75 32 -28 183 -165 215 -196 51 -48 167 -150 171 -150 2 0 34 28 72 61 37 34
83 74 101 90 18 16 59 54 91 84 32 30 93 87 136 125 42 39 90 81 105 95 15 14
67 61 116 105 48 44 102 94 119 110 18 17 52 48 76 69 24 22 85 76 134 122 50
45 99 91 111 101 18 15 73 65 234 213 59 54 216 198 274 250 33 30 75 69 92
85 18 17 57 53 88 80 31 28 79 71 107 97 28 25 80 73 116 105 36 32 86 77 111
101 41 38 72 56 57 32 -3 -6 1 -7 10 -3 13 5 14 7 3 14 -11 7 -10 11 2 19 13
8 11 13 -12 32 -14 13 -35 28 -45 35 -21 13 2 13 27 -1 8 -4 5 2 -8 13 -13 11
-28 19 -35 17 -7 -1 -9 -1 -4 1 13 8 8 25 -6 20 -8 -3 -14 1 -14 8 0 7 7 11
15 7 12 -4 11 2 -4 27 -10 18 -24 35 -31 38 -16 6 -58 -23 -45 -31 6 -3 12 1
16 9 6 17 36 21 36 4 0 -5 -4 -8 -9 -4 -15 8 -21 -9 -9 -25 8 -13 9 -13 5 1
-3 9 1 16 8 16 10 0 11 -5 5 -17 -5 -10 -8 -19 -7 -22 1 -2 -6 5 -15 15 -13
13 -18 15 -18 6 0 -12 -2 -12 -9 0 -5 7 -14 11 -20 7 -7 -5 -9 -1 -5 9 5 11 2
14 -12 8 -13 -5 -15 -3 -9 7 5 9 4 11 -3 6 -18 -11 -37 4 -21 16 11 8 10 9 -3
5 -10 -4 -41 13 -82 44 -36 27 -69 49 -75 49 -5 0 -11 3 -13 8 -1 4 -41 35
-88 69 -47 34 -89 66 -95 70 -5 5 -50 37 -100 73 -49 35 -92 67 -95 70 -3 3
-31 23 -62 44 -32 22 -58 43 -58 48 0 4 -6 8 -12 8 -21 0 -73 50 -74 71 -1 14
3 18 14 14 12 -4 13 -3 2 10 -8 10 -9 15 -1 15 6 0 11 5 11 10 0 6 -7 6 -19
-2 -11 -6 -18 -20 -16 -30 2 -11 -2 -18 -11 -18 -8 0 -14 5 -14 10 0 6 5 10
10 10 6 0 5 8 -2 19 -7 11 -16 18 -20 15 -4 -3 -5 2 -2 10 3 8 13 17 21 20 13
5 13 4 4 -8 -9 -11 -8 -15 3 -19 9 -4 18 -1 22 5 4 6 3 8 -3 5 -6 -4 -10 4
-10 18 0 14 3 22 8 19 5 -3 9 -1 9 4 0 19 -52 10 -57 -9 -3 -11 -7 -19 -9 -19
-9 0 -50 26 -62 40 -7 8 -11 9 -7 3 3 -7 2 -13 -2 -13 -5 0 -15 6 -22 13 -11
10 -12 8 -3 -9z m58 -30 c19 -15 19 -15 -1 -6 -11 5 -26 7 -34 4 -8 -3 -11 0
-7 7 10 15 19 14 42 -5z m-27 -32 c7 -14 6 -19 -4 -19 -8 0 -11 5 -8 10 3 5
-1 13 -8 18 -10 6 -10 9 -2 9 7 0 17 -8 22 -18z"/>
<path d="M3245 3602 c-13 -9 -17 -32 -6 -32 5 0 11 9 14 20 6 22 6 22 -8 12z"/>
<path d="M3440 3600 c-9 -6 -10 -10 -3 -10 6 0 15 5 18 10 8 12 4 12 -15 0z"/>
<path d="M3467 3579 c7 -7 15 -10 18 -7 3 3 -2 9 -12 12 -14 6 -15 5 -6 -5z"/>
<path d="M3440 3500 c-9 -6 -10 -10 -3 -10 6 0 15 5 18 10 8 12 4 12 -15 0z"/>
<path d="M4347 2916 c-3 -8 -4 -22 -2 -32 2 -11 4 -22 4 -26 1 -5 8 -8 16 -8
15 0 16 32 2 46 -11 11 -8 26 3 19 6 -3 10 -1 10 4 0 16 -27 13 -33 -3z m19
-42 c1 -9 0 -13 -4 -10 -3 4 -7 14 -8 22 -1 9 0 13 4 10 3 -4 7 -14 8 -22z"/>
<path d="M4416 2853 c-6 -14 -5 -15 5 -6 7 7 10 15 7 18 -3 3 -9 -2 -12 -12z"/>
</g>
</svg>
